<?xml version="1.0" encoding="utf-8"?>
<!-- Generator: Adobe Illustrator 22.1.0, SVG Export Plug-In . SVG Version: 6.00 Build 0)  -->
<svg xmlns="http://www.w3.org/2000/svg" xmlns:xlink="http://www.w3.org/1999/xlink" version="1.1" id="Layer_1" x="0px" y="0px" viewBox="0 0 256 256" style="enable-background:new 0 0 256 256;" xml:space="preserve" width="512" height="512">
<style type="text/css">
	.st0{fill:#FFA730;}
	.st1{fill:#E58D23;}
	.st2{fill:#FFB74B;}
	.st3{fill:#BF6C0D;}
	.st4{fill:#A56021;}
	.st5{fill:#CCC033;}
	.st6{fill:#99AF17;}
	.st7{fill:#EACF32;}
	.st8{fill:#FCDA4F;}
	.st9{fill:#FFDF74;}
	.st10{fill:#FCE575;}
	.st11{fill:#FFD551;}
	.st12{fill:#FFC34C;}
	.st13{fill:#F9BB32;}
	.st14{fill:#FFF4C1;}
	.st15{fill:#DB9C2E;}
	.st16{fill:#8C4C17;}
	.st17{fill:#FF624B;}
	.st18{fill:#FF4B34;}
	.st19{fill:#FF9079;}
	.st20{fill:#FFD59A;}
	.st21{fill:#FFEACF;}
	.st22{fill:#FCF9DE;}
</style>
<g>
	<g>
		<path class="st11" d="M238.182,148.788H28.584h-3.73c-1.531,0-2.992,1.237-3.262,2.764l-1.797,10.161    c-0.27,1.526,0.753,2.764,2.284,2.764h6.505h206.823h6.505v-15.688H238.182z"/>
	</g>
	<g>
		<path class="st12" d="M47.795,161.713l1.797-10.161c0.27-1.526,1.73-2.764,3.262-2.764H28.584h-3.729    c-1.531,0-2.992,1.237-3.262,2.764l-1.797,10.161c-0.27,1.526,0.753,2.764,2.284,2.764h6.505h21.495    C48.547,164.477,47.525,163.239,47.795,161.713z"/>
	</g>
	<g>
		<path class="st17" d="M146.877,149.228H32.793L49.28,57.523c0.317-1.763,2.031-3.191,3.828-3.191h107.576    c1.797,0,2.997,1.429,2.68,3.191L146.877,149.228z"/>
	</g>
	<g>
		<path class="st19" d="M146.479,103.744c-0.2,0-0.403-0.02-0.606-0.062c-1.623-0.333-2.669-1.919-2.335-3.542l7.895-38.412    c0.334-1.623,1.926-2.668,3.542-2.334c1.623,0.333,2.669,1.919,2.335,3.542l-7.895,38.412    C149.123,102.767,147.874,103.744,146.479,103.744z"/>
	</g>
	<g>
		<path class="st18" d="M81.108,54.332h-28c-1.797,0-3.511,1.429-3.828,3.191l-16.487,91.705h28L77.28,57.523    C77.597,55.761,79.31,54.332,81.108,54.332z"/>
	</g>
	<g>
		<path class="st19" d="M65.634,93.438H26.57c-1.363,0-2.468-1.105-2.468-2.468v-3.063c0-1.363,1.105-2.468,2.468-2.468h39.063    c1.363,0,2.468,1.105,2.468,2.468v3.063C68.102,92.332,66.997,93.438,65.634,93.438z"/>
	</g>
	<g>
		<path class="st19" d="M57.114,112.846H18.05c-1.363,0-2.468-1.105-2.468-2.468v-3.063c0-1.363,1.105-2.468,2.468-2.468h39.063    c1.363,0,2.468,1.105,2.468,2.468v3.063C59.582,111.74,58.477,112.846,57.114,112.846z"/>
	</g>
	<g>
		<path class="st19" d="M48.594,132.254H9.531c-1.363,0-2.468-1.105-2.468-2.468v-3.063c0-1.363,1.105-2.468,2.468-2.468h39.063    c1.363,0,2.468,1.105,2.468,2.468v3.063C51.062,131.148,49.957,132.254,48.594,132.254z"/>
	</g>
	<g>
		<path class="st13" d="M117.901,122.777H70.977c-1.719,0-2.866-1.345-2.563-3.005l6.755-36.99c0.303-1.66,1.942-3.005,3.661-3.005    h46.924c1.719,0,2.866,1.345,2.563,3.005l-6.755,36.99C121.259,121.432,119.62,122.777,117.901,122.777z"/>
	</g>
	<g>
		<path class="st9" d="M105.428,98.838l3.48-19.056h-14.13l-3.48,19.056c1.175,0,0.827,1.906,2.003,1.906    c1.177,0,1.525-1.906,2.702-1.906c1.177,0,0.829,1.906,2.006,1.906c1.177,0,1.525-1.906,2.703-1.906    c1.179,0,0.831,1.906,2.01,1.906C103.901,100.744,104.249,98.838,105.428,98.838z"/>
	</g>
	<g>
		<ellipse class="st3" cx="78.975" cy="177.542" rx="24.801" ry="24.126"/>
	</g>
	<g>
		<ellipse class="st12" cx="78.975" cy="177.542" rx="12.4" ry="12.063"/>
	</g>
	<g>
		<path class="st11" d="M84.671,118.7H74.275c-0.443,0-0.738-0.359-0.66-0.802l0.775-4.396c0.078-0.443,0.5-0.802,0.943-0.802    h10.396c0.443,0,0.738,0.359,0.66,0.802l-0.775,4.396C85.536,118.341,85.114,118.7,84.671,118.7z"/>
	</g>
	<g>
		<path class="st4" d="M117.636,115.439h-10c-0.829,0-1.5-0.672-1.5-1.5s0.671-1.5,1.5-1.5h10c0.829,0,1.5,0.672,1.5,1.5    S118.464,115.439,117.636,115.439z"/>
	</g>
	<g>
		<path class="st4" d="M115.636,119.439h-10c-0.829,0-1.5-0.672-1.5-1.5s0.671-1.5,1.5-1.5h10c0.829,0,1.5,0.672,1.5,1.5    S116.464,119.439,115.636,119.439z"/>
	</g>
	<g>
		<circle class="st18" cx="75.144" cy="137.058" r="9"/>
	</g>
	<g>
		<path class="st1" d="M242.559,93.476l-23.377-22.73c-2.79-2.713-6.574-4.237-10.519-4.237h-0.316h-37.833h-0.316    c-0.913,0-1.783,0.72-1.943,1.608l-13.311,74.039h13.916h62.691h13.916v-41.855C245.466,97.742,244.421,95.286,242.559,93.476z"/>
	</g>
	<g>
		<path class="st3" d="M198.197,66.509h-27.684h-0.316c-0.913,0-1.783,0.72-1.943,1.608l-13.311,74.039h13.916h14.084l13.311-74.039    C196.414,67.229,197.284,66.509,198.197,66.509z"/>
	</g>
	<g>
		<path class="st9" d="M232.923,100.026l-21.924-21.316c-0.624-0.607-1.454-0.941-2.337-0.941h-2.088H183.74h-2.089    c-1.826,0-3.566,1.44-3.885,3.217l-5.33,29.648c-0.319,1.777,0.902,3.217,2.729,3.217h8.575h38.27h8.575    c1.826,0,3.307-1.44,3.307-3.217v-8.332C233.892,101.447,233.544,100.629,232.923,100.026z"/>
	</g>
	<g>
		<path class="st13" d="M245.776,134.228h-12.226h-64.678h-12.226l-6.401,30h18.627h58.277h18.627c1.746,0,3.162-1.17,3.162-2.613    v-24.774C248.938,135.398,247.522,134.228,245.776,134.228z"/>
	</g>
	<g>
		<path class="st12" d="M240.938,159.477c-1.657,0-3-1.343-3-3V141.98c0-1.657,1.343-3,3-3s3,1.343,3,3v14.497    C243.938,158.134,242.595,159.477,240.938,159.477z"/>
	</g>
	<g>
		<path class="st11" d="M183.74,77.768h-2.089c-1.826,0-3.566,1.44-3.885,3.217l-5.33,29.648c-0.319,1.777,0.902,3.217,2.729,3.217    h8.575h4.292l6.487-36.082H183.74z"/>
	</g>
	<g>
		<polygon class="st15" points="168.873,133.98 156.647,133.98 150.246,164.477 168.873,164.477 178.246,164.477 184.647,133.98       "/>
	</g>
	<g>
		<path class="st0" d="M165.201,173.093h-37.049c-2.02,0-3.658-1.638-3.658-3.658v-17.442c0-2.02,1.638-3.658,3.658-3.658h37.049    c2.02,0,3.658,1.638,3.658,3.658v17.442C168.859,171.455,167.221,173.093,165.201,173.093z"/>
	</g>
	<g>
		<path class="st1" d="M144.493,169.435v-17.442c0-2.021,1.638-3.658,3.658-3.658h-20c-2.021,0-3.658,1.638-3.658,3.658v17.442    c0,2.021,1.638,3.658,3.658,3.658h20C146.131,173.093,144.493,171.455,144.493,169.435z"/>
	</g>
	<g>
		<path class="st12" d="M138.409,166.998L138.409,166.998c-1.826,0-3.307-1.48-3.307-3.307v-15.356h6.614v15.356    C141.716,165.517,140.236,166.998,138.409,166.998z"/>
	</g>
	<g>
		<path class="st12" d="M154.943,166.998L154.943,166.998c-1.826,0-3.307-1.48-3.307-3.307v-15.356h6.614v15.356    C158.25,165.517,156.77,166.998,154.943,166.998z"/>
	</g>
	<g>
		<ellipse class="st3" cx="208.265" cy="177.542" rx="24.801" ry="24.126"/>
	</g>
	<g>
		<ellipse class="st12" cx="208.265" cy="177.542" rx="12.4" ry="12.063"/>
	</g>
	<g>
		<path class="st4" d="M66.174,177.542c0-11.311,8.003-20.801,18.801-23.411c-1.922-0.465-3.931-0.715-6-0.715    c-13.697,0-24.801,10.802-24.801,24.126s11.104,24.126,24.801,24.126c2.069,0,4.078-0.25,6-0.715    C74.178,198.342,66.174,188.853,66.174,177.542z"/>
	</g>
	<g>
		<path class="st4" d="M195.464,177.542c0-11.311,8.003-20.801,18.801-23.411c-1.922-0.465-3.93-0.715-6-0.715    c-13.697,0-24.801,10.802-24.801,24.126s11.104,24.126,24.801,24.126c2.07,0,4.078-0.25,6-0.715    C203.468,198.342,195.464,188.853,195.464,177.542z"/>
	</g>
	<g>
		<circle class="st11" cx="204.343" cy="88.816" r="9"/>
	</g>
	<g>
		<path class="st15" d="M74.575,177.542c0-5.289,3.522-9.783,8.401-11.407c-1.257-0.418-2.599-0.656-4-0.656    c-6.838,0-12.401,5.411-12.401,12.063s5.563,12.063,12.401,12.063c1.401,0,2.743-0.238,4-0.656    C78.097,187.325,74.575,182.831,74.575,177.542z"/>
	</g>
	<g>
		<path class="st15" d="M203.865,177.542c0-5.289,3.522-9.783,8.4-11.407c-1.257-0.418-2.599-0.656-4-0.656    c-6.838,0-12.4,5.411-12.4,12.063s5.563,12.063,12.4,12.063c1.401,0,2.743-0.238,4-0.656    C207.387,187.325,203.865,182.831,203.865,177.542z"/>
	</g>
</g>
</svg>
